<svg width="99" height="278" viewBox="0 0 99 278" fill="none" xmlns="http://www.w3.org/2000/svg">
<path d="M9.86857 237.63H0.113281V247.381H9.86857V237.63Z" fill="#343435"/>
<path d="M9.86857 208.032H0.113281V217.783H9.86857V208.032Z" fill="#343435"/>
<path d="M9.86857 178.435H0.113281V188.186H9.86857V178.435Z" fill="#343435"/>
<path d="M9.86857 148.837H0.113281V158.588H9.86857V148.837Z" fill="#343435"/>
<path d="M9.86857 119.239H0.113281V128.99H9.86857V119.239Z" fill="#343435"/>
<path d="M59.3354 247.381H69.0907V237.63H59.3354V247.381Z" fill="#343435"/>
<path d="M59.3354 217.783H69.0907V208.032H59.3354V217.783Z" fill="#343435"/>
<path d="M59.3354 188.186H69.0907V178.435H59.3354V188.186Z" fill="#343435"/>
<path d="M59.3354 158.565H69.0907V148.837H59.3354V158.565Z" fill="#343435"/>
<path d="M59.3354 128.967H69.0907V119.239H59.3354V128.967Z" fill="#343435"/>
<path d="M9.86857 89.6409H0.113281V99.3918H9.86857V89.6409Z" fill="#343435"/>
<path d="M9.86857 60.02H0.113281V69.771H9.86857V60.02Z" fill="#343435"/>
<path d="M9.86857 30.4221H0.113281V40.1731H9.86857V30.4221Z" fill="#343435"/>
<path d="M9.86857 0.824219H0.113281V10.5752H9.86857V0.824219Z" fill="#343435"/>
<path d="M59.3354 99.3689H69.0907V89.6409H59.3354V99.3689Z" fill="#343435"/>
<path d="M59.3354 69.771H69.0907V60.02H59.3354V69.771Z" fill="#343435"/>
<path d="M59.3354 40.1731H69.0907V30.4221H59.3354V40.1731Z" fill="#343435"/>
<path d="M59.3354 10.5752H69.0907V0.824219H59.3354V10.5752Z" fill="#343435"/>
<path d="M39.4794 237.63H29.7241V247.381H39.4794V237.63Z" fill="#343435"/>
<path d="M39.4794 208.032H29.7241V217.783H39.4794V208.032Z" fill="#343435"/>
<path d="M39.4794 178.435H29.7241V188.186H39.4794V178.435Z" fill="#343435"/>
<path d="M39.4794 148.837H29.7241V158.588H39.4794V148.837Z" fill="#343435"/>
<path d="M39.4794 119.239H29.7241V128.99H39.4794V119.239Z" fill="#343435"/>
<path d="M98.7016 237.63H88.9463V247.381H98.7016V237.63Z" fill="#343435"/>
<path d="M98.7016 208.032H88.9463V217.783H98.7016V208.032Z" fill="#343435"/>
<path d="M98.7016 178.435H88.9463V188.186H98.7016V178.435Z" fill="#343435"/>
<path d="M98.7016 148.837H88.9463V158.588H98.7016V148.837Z" fill="#343435"/>
<path d="M98.7016 119.239H88.9463V128.99H98.7016V119.239Z" fill="#343435"/>
<path d="M9.86857 267.343H0.113281V277.094H9.86857V267.343Z" fill="#343435"/>
<path d="M59.3354 277.094H69.0907V267.343H59.3354V277.094Z" fill="#343435"/>
<path d="M39.4794 267.343H29.7241V277.094H39.4794V267.343Z" fill="#343435"/>
<path d="M98.7016 267.343H88.9463V277.094H98.7016V267.343Z" fill="#343435"/>
<path d="M39.4794 89.6409H29.7241V99.3918H39.4794V89.6409Z" fill="#343435"/>
<path d="M39.4794 60.02H29.7241V69.771H39.4794V60.02Z" fill="#343435"/>
<path d="M39.4794 30.4221H29.7241V40.1731H39.4794V30.4221Z" fill="#343435"/>
<path d="M39.4794 0.824219H29.7241V10.5752H39.4794V0.824219Z" fill="#343435"/>
<path d="M98.7016 89.6409H88.9463V99.3918H98.7016V89.6409Z" fill="#343435"/>
<path d="M98.7016 60.02H88.9463V69.771H98.7016V60.02Z" fill="#343435"/>
<path d="M98.7016 30.4221H88.9463V40.1731H98.7016V30.4221Z" fill="#343435"/>
<path d="M98.7016 0.824219H88.9463V10.5752H98.7016V0.824219Z" fill="#343435"/>
</svg>
